<svg version="1.1" id="Layer_1" xmlns="http://www.w3.org/2000/svg" xmlns:xlink="http://www.w3.org/1999/xlink" x="0px" y="0px"
	 width="100%" viewBox="0 0 1024 1024" enable-background="new 0 0 1024 1024" xml:space="preserve">
<path fill="#E1ECE8" opacity="1.000000" stroke="none" 
	d="
M953.000000,1025.000000 
	C635.333313,1025.000000 318.166656,1025.000000 1.000000,1025.000000 
	C1.000000,683.666687 1.000000,342.333344 1.000000,1.000000 
	C342.333344,1.000000 683.666687,1.000000 1025.000000,1.000000 
	C1025.000000,342.333344 1025.000000,683.666687 1025.000000,1025.000000 
	C1001.166687,1025.000000 977.333313,1025.000000 953.000000,1025.000000 
M192.124496,569.492554 
	C192.342911,569.716492 192.608063,569.840515 193.399200,570.369995 
	C196.603104,571.891296 199.807007,573.412598 203.663605,575.318481 
	C205.236771,575.330261 207.138962,575.925232 208.327179,575.254761 
	C214.006226,572.050232 219.491638,568.502563 225.749634,565.032898 
	C248.673660,550.459290 259.775299,523.616821 258.273529,496.774841 
	C254.361603,499.564972 250.442429,501.776428 247.272659,504.779022 
	C243.836304,508.034210 239.658661,511.573578 238.333664,515.784851 
	C234.789948,527.047974 229.049316,536.640991 220.202805,545.166016 
	C215.141678,548.467407 210.080536,551.768799 204.354645,554.868164 
	C198.684586,550.869507 193.014526,546.870789 187.225494,542.806335 
	C187.225494,542.806335 187.134384,542.907227 187.059525,542.343384 
	C186.742249,542.180481 186.424973,542.017578 186.203857,541.850525 
	C186.203857,541.850525 186.207748,541.754395 186.076324,541.144409 
	C185.017426,539.895508 183.958527,538.646667 182.635910,536.738281 
	C175.674316,527.563049 172.454483,517.285767 172.859085,505.712708 
	C173.147827,497.453430 172.813782,489.172424 173.280899,480.272217 
	C184.219498,478.833893 194.707657,476.202881 203.936691,469.672485 
	C204.924988,468.973206 207.182739,470.067932 209.218643,470.856171 
	C210.928207,471.867554 212.593506,472.964478 214.354706,473.876129 
	C224.172379,478.958069 225.108505,478.783234 232.860535,471.277527 
	C236.719238,467.541443 240.683289,463.914154 245.536636,459.358093 
	C242.444031,459.358093 240.685852,459.349579 238.927780,459.359589 
	C231.621719,459.401123 224.762955,457.839752 218.552231,453.818085 
	C215.773758,452.018921 212.919632,450.336578 209.708099,448.080902 
	C206.913483,444.530273 204.504639,444.903320 201.251038,448.001801 
	C194.936813,454.015015 187.446579,458.227234 177.988144,460.174805 
	C171.855621,460.241943 165.664185,460.856018 159.609116,460.204010 
	C154.725388,459.678131 154.004211,461.408508 154.061035,465.589233 
	C154.251144,479.573853 153.835571,493.572449 154.282623,507.545471 
	C154.503815,514.458801 155.237473,521.594238 157.254349,528.164124 
	C162.087418,543.907410 171.313141,556.659363 185.834717,565.155151 
	C185.834717,565.155151 185.880646,565.147278 186.147934,565.713379 
	C187.052002,566.187744 187.956070,566.662170 188.914948,567.146423 
	C188.914948,567.146423 188.890045,567.196289 189.151871,567.757935 
	C190.066055,568.215088 190.980240,568.672241 191.929596,569.126648 
	C191.929596,569.126648 191.917542,569.093628 192.124496,569.492554 
M665.771484,541.237732 
	C665.771484,541.237732 665.677002,541.320190 665.978271,541.862183 
	C666.990051,542.560303 668.001831,543.258362 669.363586,544.405823 
	C669.874634,544.616211 670.385742,544.826599 671.370728,545.519409 
	C672.212097,545.820435 673.053406,546.121460 674.470520,546.833862 
	C679.227539,547.244324 684.014160,548.190247 688.733948,547.928467 
	C694.504700,547.608459 699.662598,545.122803 703.422485,540.479248 
	C706.305237,536.918945 705.626099,534.702332 701.547058,532.693054 
	C698.449890,531.167480 696.092346,531.941650 693.346252,533.864563 
	C684.118713,540.325867 672.952759,536.307983 671.447754,525.968201 
	C681.436707,525.968201 691.393555,525.804016 701.340820,526.040222 
	C706.038208,526.151794 707.525452,523.813599 707.653809,519.725830 
	C707.976440,509.446899 700.963928,499.850006 690.582520,496.705902 
	C690.582520,496.705902 690.090759,496.724335 689.560547,496.335876 
	C688.696594,496.253906 687.832642,496.171906 686.257141,495.876465 
	C682.515808,496.279602 678.774536,496.682770 674.478027,497.101929 
	C674.318726,497.196320 674.159424,497.290680 673.331665,497.497620 
	C656.666626,504.845825 652.114563,527.292542 664.801514,540.260132 
	C664.801514,540.260132 664.615906,540.286316 664.829590,540.796387 
	C665.139282,540.985107 665.448975,541.173828 665.771484,541.237732 
M648.150513,475.647583 
	C645.430359,475.752899 642.710144,475.858185 639.186279,476.134399 
	C638.800720,477.827423 638.116577,479.514465 638.082581,481.214539 
	C637.951965,487.747711 638.029602,494.285065 638.029602,501.180450 
	C625.347351,493.254852 612.508911,494.719635 604.372559,504.577271 
	C596.032654,514.681580 596.305176,530.590698 604.986755,540.428101 
	C613.116455,549.640015 626.129517,550.759521 637.421570,543.218384 
	C639.742310,547.367310 642.616821,548.038086 650.869446,545.747864 
	C651.031860,543.943665 651.328003,542.140015 651.335632,540.335205 
	C651.399231,525.356628 651.445557,510.377808 651.418152,495.399200 
	C651.407532,489.592773 651.193665,483.786713 651.021790,477.340546 
	C650.350647,476.880707 649.679504,476.420837 648.150513,475.647583 
M328.238281,525.179993 
	C327.010345,523.296387 325.782440,521.412842 324.544617,519.514099 
	C336.939453,512.459839 341.405212,503.877411 338.649017,492.931915 
	C335.876984,481.923492 327.213409,476.014648 313.641174,475.920288 
	C306.813171,475.872833 299.979736,476.036102 293.158447,475.810883 
	C289.249939,475.681824 287.865295,477.150116 287.886841,481.043243 
	C287.998352,501.194427 288.001068,521.347229 287.848846,541.498047 
	C287.819519,545.381226 289.051758,547.129578 293.007935,546.681091 
	C294.326447,546.531555 295.682739,546.463501 296.998810,546.592529 
	C300.684082,546.953857 302.076904,545.382812 301.976837,541.694702 
	C301.793030,534.923828 301.924377,528.144531 301.924377,521.623718 
	C307.560883,520.013367 310.988037,521.485718 313.469666,526.313843 
	C315.892975,531.028320 319.530487,535.125305 321.890259,539.864258 
	C324.906097,545.920654 329.500092,547.484619 335.730896,546.700195 
	C340.020691,546.160095 340.760101,545.289490 338.485168,541.404907 
	C335.376984,536.097595 331.951660,530.975952 328.238281,525.179993 
M552.252136,499.652252 
	C549.670349,508.942871 547.088562,518.233459 544.506775,527.524109 
	C540.870728,518.746704 538.298401,510.188995 535.929199,501.575378 
	C534.998413,498.191162 533.329529,496.382904 529.606689,496.903046 
	C527.971130,497.131561 526.282227,496.974243 524.617615,496.999756 
	C521.842041,497.042297 520.567932,498.148682 521.554749,501.084290 
	C526.317993,515.253845 530.933594,529.474365 535.844727,543.592163 
	C537.698547,548.921448 542.652954,546.293152 546.285034,546.846436 
	C549.369385,547.316284 550.587952,545.300903 551.365845,542.570618 
	C553.616272,534.671631 556.062866,526.828430 558.463562,518.860229 
	C558.981689,519.209290 559.405212,519.333618 559.476562,519.566040 
	C561.328430,525.597839 563.127136,531.645935 564.968811,537.680908 
	C568.199036,548.265625 566.612061,546.590088 578.046692,546.730835 
	C579.391541,546.747437 581.553955,545.206909 581.994019,543.926575 
	C586.853821,529.786987 591.491394,515.569885 596.031250,501.323456 
	C596.397705,500.173401 596.071838,498.017914 595.259827,497.411560 
	C591.526550,494.623810 583.426880,497.699951 582.154053,502.145203 
	C579.687134,510.760529 577.217224,519.375000 574.748535,527.989807 
	C571.313843,519.681763 569.049805,511.399170 566.824951,503.106018 
	C565.039978,496.452606 558.300476,494.456024 552.252136,499.652252 
M798.750000,513.449341 
	C799.083374,522.228271 799.528137,531.004761 799.714844,539.786804 
	C799.864929,546.844788 799.726257,546.849670 806.949890,546.740417 
	C807.948059,546.725342 809.223267,547.055481 809.884094,546.567444 
	C811.147339,545.634583 812.952454,544.246338 812.977966,543.014832 
	C813.181641,533.198120 813.423218,523.350769 812.863586,513.557983 
	C812.241516,502.673676 804.059692,495.312073 793.213135,496.123352 
	C788.415344,496.482147 783.781311,499.030365 779.133362,500.564758 
	C779.133362,496.324097 779.098389,491.358826 779.140320,486.394226 
	C779.239319,474.667511 778.817017,474.284607 767.115173,475.941010 
	C766.822083,475.982483 766.561401,476.251923 766.121399,476.512177 
	C766.039124,477.043304 765.854004,477.682220 765.853455,478.321228 
	C765.834473,499.800629 765.894470,521.280334 765.783569,542.759155 
	C765.757507,547.794128 769.234558,546.758545 772.015869,546.714233 
	C775.073975,546.665588 779.136658,548.029602 779.052307,542.411621 
	C778.937378,534.754700 778.884155,527.088196 779.145569,519.437500 
	C779.310486,514.612366 781.536072,510.690674 786.413208,509.139832 
	C791.052734,507.664581 795.318665,508.255981 798.750000,513.449341 
M728.051575,543.274719 
	C729.001465,538.480408 725.684143,532.511841 732.166626,528.737183 
	C735.852905,533.428955 739.433655,537.962402 742.987976,542.516541 
	C746.919250,547.553711 756.352600,548.589783 761.273743,544.171570 
	C754.422058,536.147156 747.559204,528.109680 740.640381,520.006653 
	C747.125427,512.730652 753.254700,505.853851 759.496338,498.850983 
	C753.471497,495.390106 745.930481,496.428406 742.217529,500.616882 
	C737.987427,505.388702 733.725403,510.132233 728.589294,515.882141 
	C728.390564,512.866760 728.202942,511.296112 728.197266,509.724823 
	C728.163086,500.237579 728.015991,490.746521 728.238037,481.264526 
	C728.330627,477.313690 727.365295,475.448639 723.009277,475.539734 
	C714.901001,475.709290 714.767395,475.546387 714.741455,481.144135 
	C714.649536,500.949432 714.561218,520.755432 714.676270,540.559937 
	C714.687744,542.526794 716.064880,546.148987 716.863098,546.164429 
	C720.615662,546.237000 725.113281,548.826660 728.051575,543.274719 
M517.526978,525.427979 
	C518.348389,523.724365 519.768677,522.062744 519.891479,520.310242 
	C520.561646,510.748627 512.780579,499.680664 503.523804,496.995239 
	C494.126617,494.269043 485.195038,495.395325 477.873077,502.218201 
	C469.950439,509.600739 468.476471,519.045776 470.702179,529.315125 
	C475.273834,550.408325 501.027222,552.464417 512.243042,543.116821 
	C514.228882,541.461731 516.095398,538.652954 516.278625,536.244690 
	C516.379883,534.913086 513.055847,532.605225 510.933746,532.053650 
	C509.325073,531.635498 506.961121,532.977600 505.302307,534.087891 
	C496.174133,540.197388 484.134918,535.976074 483.302429,525.772217 
	C494.469360,525.772217 505.598328,525.772217 517.526978,525.427979 
M374.157776,496.320923 
	C353.893982,493.563690 340.327179,506.550079 343.079315,526.320312 
	C344.450012,536.167053 349.802795,543.369202 359.313812,546.651367 
	C368.842896,549.939819 378.111664,548.946411 386.168701,542.479919 
	C387.909424,541.082886 389.820374,538.168213 389.470825,536.378906 
	C389.115326,534.559265 386.261780,532.584656 384.129364,531.968994 
	C382.569183,531.518555 380.189178,532.830505 378.547211,533.918945 
	C369.281189,540.060974 357.934692,536.201538 356.355713,525.968323 
	C366.516052,525.968323 376.635406,525.990234 386.754608,525.959106 
	C391.791138,525.943604 393.210022,524.365295 392.928833,519.292358 
	C392.348907,508.830902 384.991058,499.555298 374.157776,496.320923 
M835.349304,497.753204 
	C822.075867,503.663208 816.084412,517.662781 820.957153,531.381531 
	C825.561707,544.345215 839.794739,551.301941 853.478333,547.276917 
	C867.012512,543.295837 874.973694,529.938354 872.049133,516.118530 
	C868.707886,500.329559 853.501099,492.435089 835.349304,497.753204 
M410.058472,504.333954 
	C409.156830,498.704346 406.374664,496.197296 400.209869,496.844788 
	C393.716339,497.526825 393.270447,497.540619 395.592285,503.960663 
	C399.665070,515.222412 403.789520,526.465759 407.959442,537.691833 
	C411.570221,547.412659 411.621155,547.507446 421.985168,546.581238 
	C423.602509,546.436768 425.958435,545.112122 426.493164,543.751648 
	C432.085968,529.522522 437.437347,515.196350 442.604370,500.806885 
	C442.922668,499.920471 441.342010,497.380798 440.280975,497.126099 
	C432.653320,495.294891 430.102081,496.927490 427.608612,504.520172 
	C424.944824,512.631470 422.253326,520.733643 419.573914,528.839844 
	C419.197906,528.841675 418.821869,528.843445 418.445831,528.845276 
	C415.719696,520.927734 412.993561,513.010254 410.058472,504.333954 
M216.684235,523.188293 
	C221.468460,518.560181 226.289764,513.969421 231.017395,509.284210 
	C232.740173,507.576935 234.875290,505.944397 232.579865,502.998016 
	C228.520828,497.787750 222.424744,496.936707 217.616791,501.304108 
	C213.349548,505.180359 209.258972,509.251129 205.003113,513.319519 
	C203.204453,511.654816 201.739243,510.319672 200.298126,508.959045 
	C198.845688,507.587830 197.449493,506.155640 195.971893,504.812622 
	C191.997925,501.200623 189.246017,501.044098 186.024948,504.188965 
	C183.061081,507.082764 182.962097,511.530884 186.012543,514.919983 
	C188.682449,517.886292 191.572311,520.654297 194.358810,523.515991 
	C204.649902,534.084595 205.849258,534.095459 216.684235,523.188293 
M457.314117,546.725830 
	C461.311829,547.179443 462.941559,545.652466 462.875000,541.392151 
	C462.677521,528.759094 462.891510,516.120178 462.868439,503.483704 
	C462.857391,497.451599 462.164154,496.816040 456.375336,496.756836 
	C450.095520,496.692627 449.175720,497.443359 449.142853,503.316772 
	C449.075806,515.287720 449.136047,527.259277 449.103088,539.230530 
	C449.082703,546.632874 449.048981,546.632751 457.314117,546.725830 
M447.342926,482.351379 
	C448.036865,486.681427 450.348022,490.055695 454.696014,490.578613 
	C457.114960,490.869537 460.282410,489.771912 462.210815,488.196411 
	C465.255432,485.708954 465.775787,481.980530 463.958130,478.268524 
	C462.151947,474.579987 458.964844,472.879791 455.052155,473.321716 
	C450.355377,473.852203 447.785706,476.855499 447.342926,482.351379 
M243.871658,494.901093 
	C241.052841,490.804047 245.307602,488.958405 247.469589,485.532410 
	C241.616531,487.192535 240.051727,483.535614 238.132828,479.221924 
	C238.432404,485.713440 234.075958,485.699127 231.107513,485.837921 
	C232.141693,489.334106 233.098557,492.569000 233.684982,494.551514 
	C237.216843,494.912476 240.545013,495.252655 243.871658,494.901093 
M272.372314,469.932098 
	C272.878357,467.126099 273.384399,464.320099 273.800079,462.015198 
	C271.597137,460.153015 269.146118,458.081116 267.081085,456.335510 
	C264.717865,458.232147 262.227356,460.230957 260.414734,461.685730 
	C261.194031,464.843994 261.943573,467.881622 262.359192,469.566010 
	C265.772095,469.900452 268.884338,470.205444 272.372314,469.932098 
M257.076752,472.715454 
	C255.085114,471.830536 253.093475,470.945648 250.769669,469.913116 
	C249.502228,470.822510 247.475220,472.276855 245.847458,473.444733 
	C246.519669,475.610291 247.240829,477.933563 247.956406,480.238831 
	C249.767807,480.355438 252.169174,480.510040 253.876541,480.619965 
	C255.185516,477.977234 256.381073,475.563538 257.076752,472.715454 
z"/>
<path fill="#304560" opacity="1.000000" stroke="none" 
	d="
M328.450287,525.477356 
	C331.951660,530.975952 335.376984,536.097595 338.485168,541.404907 
	C340.760101,545.289490 340.020691,546.160095 335.730896,546.700195 
	C329.500092,547.484619 324.906097,545.920654 321.890259,539.864258 
	C319.530487,535.125305 315.892975,531.028320 313.469666,526.313843 
	C310.988037,521.485718 307.560883,520.013367 301.924377,521.623718 
	C301.924377,528.144531 301.793030,534.923828 301.976837,541.694702 
	C302.076904,545.382812 300.684082,546.953857 296.998810,546.592529 
	C295.682739,546.463501 294.326447,546.531555 293.007935,546.681091 
	C289.051758,547.129578 287.819519,545.381226 287.848846,541.498047 
	C288.001068,521.347229 287.998352,501.194427 287.886841,481.043243 
	C287.865295,477.150116 289.249939,475.681824 293.158447,475.810883 
	C299.979736,476.036102 306.813171,475.872833 313.641174,475.920288 
	C327.213409,476.014648 335.876984,481.923492 338.649017,492.931915 
	C341.405212,503.877411 336.939453,512.459839 324.544617,519.514099 
	C325.782440,521.412842 327.010345,523.296387 328.450287,525.477356 
M312.232788,508.569183 
	C314.379364,508.397919 316.587433,508.488525 318.659821,508.001556 
	C323.143188,506.948059 326.018341,503.034607 325.820984,498.461304 
	C325.619507,493.791870 323.327454,490.100922 318.687134,489.536957 
	C313.210693,488.871368 307.591461,489.380798 301.836456,489.380798 
	C301.836456,492.796356 301.836426,495.783417 301.836426,498.770477 
	C301.836426,501.875000 301.836456,504.979553 301.836456,508.576294 
	C305.388763,508.576294 308.353607,508.576294 312.232788,508.569183 
z"/>
<path fill="#304560" opacity="1.000000" stroke="none" 
	d="
M552.432495,499.287994 
	C558.300476,494.456024 565.039978,496.452606 566.824951,503.106018 
	C569.049805,511.399170 571.313843,519.681763 574.748535,527.989807 
	C577.217224,519.375000 579.687134,510.760529 582.154053,502.145203 
	C583.426880,497.699951 591.526550,494.623810 595.259827,497.411560 
	C596.071838,498.017914 596.397705,500.173401 596.031250,501.323456 
	C591.491394,515.569885 586.853821,529.786987 581.994019,543.926575 
	C581.553955,545.206909 579.391541,546.747437 578.046692,546.730835 
	C566.612061,546.590088 568.199036,548.265625 564.968811,537.680908 
	C563.127136,531.645935 561.328430,525.597839 559.476562,519.566040 
	C559.405212,519.333618 558.981689,519.209290 558.463562,518.860229 
	C556.062866,526.828430 553.616272,534.671631 551.365845,542.570618 
	C550.587952,545.300903 549.369385,547.316284 546.285034,546.846436 
	C542.652954,546.293152 537.698547,548.921448 535.844727,543.592163 
	C530.933594,529.474365 526.317993,515.253845 521.554749,501.084290 
	C520.567932,498.148682 521.842041,497.042297 524.617615,496.999756 
	C526.282227,496.974243 527.971130,497.131561 529.606689,496.903046 
	C533.329529,496.382904 534.998413,498.191162 535.929199,501.575378 
	C538.298401,510.188995 540.870728,518.746704 544.506775,527.524109 
	C547.088562,518.233459 549.670349,508.942871 552.432495,499.287994 
z"/>
<path fill="#314762" opacity="1.000000" stroke="none" 
	d="
M650.068604,546.169556 
	C642.616821,548.038086 639.742310,547.367310 637.421570,543.218384 
	C626.129517,550.759521 613.116455,549.640015 604.986755,540.428101 
	C596.305176,530.590698 596.032654,514.681580 604.372559,504.577271 
	C612.508911,494.719635 625.347351,493.254852 638.029602,501.180450 
	C638.029602,494.285065 637.951965,487.747711 638.082581,481.214539 
	C638.116577,479.514465 638.800720,477.827423 639.872314,476.326233 
	C643.375000,476.332367 646.191711,476.146637 649.008362,475.960938 
	C649.679504,476.420837 650.350647,476.880707 650.753784,477.960999 
	C650.322754,479.714508 650.017944,480.847504 650.017700,481.980560 
	C650.013184,503.376892 650.044678,524.773193 650.068604,546.169556 
M637.839966,526.720093 
	C639.493713,515.330017 632.721313,506.994568 623.005432,508.461761 
	C616.629761,509.424591 611.569336,514.939270 611.150818,521.380493 
	C610.729675,527.861084 615.059448,533.924072 621.327942,535.631714 
	C628.098083,537.475952 633.829590,534.601929 637.839966,526.720093 
z"/>
<path fill="#304560" opacity="1.000000" stroke="none" 
	d="
M798.516785,513.088257 
	C795.318665,508.255981 791.052734,507.664581 786.413208,509.139832 
	C781.536072,510.690674 779.310486,514.612366 779.145569,519.437500 
	C778.884155,527.088196 778.937378,534.754700 779.052307,542.411621 
	C779.136658,548.029602 775.073975,546.665588 772.015869,546.714233 
	C769.234558,546.758545 765.757507,547.794128 765.783569,542.759155 
	C765.894470,521.280334 765.834473,499.800629 765.853455,478.321228 
	C765.854004,477.682220 766.039124,477.043304 766.121399,476.512177 
	C766.561401,476.251923 766.822083,475.982483 767.115173,475.941010 
	C778.817017,474.284607 779.239319,474.667511 779.140320,486.394226 
	C779.098389,491.358826 779.133362,496.324097 779.133362,500.564758 
	C783.781311,499.030365 788.415344,496.482147 793.213135,496.123352 
	C804.059692,495.312073 812.241516,502.673676 812.863586,513.557983 
	C813.423218,523.350769 813.181641,533.198120 812.977966,543.014832 
	C812.952454,544.246338 811.147339,545.634583 809.884094,546.567444 
	C809.223267,547.055481 807.948059,546.725342 806.949890,546.740417 
	C799.726257,546.849670 799.864929,546.844788 799.714844,539.786804 
	C799.528137,531.004761 799.083374,522.228271 798.516785,513.088257 
z"/>
<path fill="#7471F5" opacity="1.000000" stroke="none" 
	d="
M185.786407,565.164368 
	C171.313141,556.659363 162.087418,543.907410 157.254349,528.164124 
	C155.237473,521.594238 154.503815,514.458801 154.282623,507.545471 
	C153.835571,493.572449 154.251144,479.573853 154.061035,465.589233 
	C154.004211,461.408508 154.725388,459.678131 159.609116,460.204010 
	C165.664185,460.856018 171.855621,460.241943 178.199066,460.432678 
	C174.826096,466.457733 171.655014,472.202606 178.984634,476.644714 
	C176.833817,478.114899 174.795731,479.507996 172.757645,480.901093 
	C172.813782,489.172424 173.147827,497.453430 172.859085,505.712708 
	C172.454483,517.285767 175.674316,527.563049 182.795166,537.405334 
	C182.954407,539.315430 182.954407,540.558533 182.954407,541.974854 
	C184.262848,541.886169 185.235291,541.820312 186.207748,541.754395 
	C186.207748,541.754395 186.203857,541.850525 186.245224,542.097473 
	C186.569183,542.532043 186.851776,542.719666 187.134369,542.907227 
	C187.134384,542.907227 187.225494,542.806335 186.980469,543.089417 
	C185.493225,543.577820 184.250977,543.783142 182.955902,543.868103 
	C182.826599,543.705261 182.750122,543.662842 182.673645,543.620422 
	C182.778595,543.749878 182.883560,543.879272 182.977005,544.394104 
	C180.286804,549.606140 181.591812,554.133545 183.791946,558.721497 
	C184.753555,560.726807 185.139206,563.008301 185.786407,565.164368 
z"/>
<path fill="#304560" opacity="1.000000" stroke="none" 
	d="
M728.038269,543.706177 
	C725.113281,548.826660 720.615662,546.237000 716.863098,546.164429 
	C716.064880,546.148987 714.687744,542.526794 714.676270,540.559937 
	C714.561218,520.755432 714.649536,500.949432 714.741455,481.144135 
	C714.767395,475.546387 714.901001,475.709290 723.009277,475.539734 
	C727.365295,475.448639 728.330627,477.313690 728.238037,481.264526 
	C728.015991,490.746521 728.163086,500.237579 728.197266,509.724823 
	C728.202942,511.296112 728.390564,512.866760 728.589294,515.882141 
	C733.725403,510.132233 737.987427,505.388702 742.217529,500.616882 
	C745.930481,496.428406 753.471497,495.390106 759.496338,498.850983 
	C753.254700,505.853851 747.125427,512.730652 740.640381,520.006653 
	C747.559204,528.109680 754.422058,536.147156 761.273743,544.171570 
	C756.352600,548.589783 746.919250,547.553711 742.987976,542.516541 
	C739.433655,537.962402 735.852905,533.428955 732.166626,528.737183 
	C725.684143,532.511841 729.001465,538.480408 728.038269,543.706177 
z"/>
<path fill="#314762" opacity="1.000000" stroke="none" 
	d="
M517.127136,525.600098 
	C505.598328,525.772217 494.469360,525.772217 483.302429,525.772217 
	C484.134918,535.976074 496.174133,540.197388 505.302307,534.087891 
	C506.961121,532.977600 509.325073,531.635498 510.933746,532.053650 
	C513.055847,532.605225 516.379883,534.913086 516.278625,536.244690 
	C516.095398,538.652954 514.228882,541.461731 512.243042,543.116821 
	C501.027222,552.464417 475.273834,550.408325 470.702179,529.315125 
	C468.476471,519.045776 469.950439,509.600739 477.873077,502.218201 
	C485.195038,495.395325 494.126617,494.269043 503.523804,496.995239 
	C512.780579,499.680664 520.561646,510.748627 519.891479,520.310242 
	C519.768677,522.062744 518.348389,523.724365 517.127136,525.600098 
M504.490570,511.194733 
	C496.457153,504.088684 487.131226,506.136169 483.087372,517.091797 
	C491.174988,517.559021 498.771027,518.529968 506.721771,515.789490 
	C506.011871,514.199829 505.480255,513.009338 504.490570,511.194733 
z"/>
<path fill="#304560" opacity="1.000000" stroke="none" 
	d="
M374.535583,496.451111 
	C384.991058,499.555298 392.348907,508.830902 392.928833,519.292358 
	C393.210022,524.365295 391.791138,525.943604 386.754608,525.959106 
	C376.635406,525.990234 366.516052,525.968323 356.355713,525.968323 
	C357.934692,536.201538 369.281189,540.060974 378.547211,533.918945 
	C380.189178,532.830505 382.569183,531.518555 384.129364,531.968994 
	C386.261780,532.584656 389.115326,534.559265 389.470825,536.378906 
	C389.820374,538.168213 387.909424,541.082886 386.168701,542.479919 
	C378.111664,548.946411 368.842896,549.939819 359.313812,546.651367 
	C349.802795,543.369202 344.450012,536.167053 343.079315,526.320312 
	C340.327179,506.550079 353.893982,493.563690 374.535583,496.451111 
M369.282166,507.073517 
	C364.640289,506.802094 360.803101,508.293610 358.160919,512.265259 
	C355.757935,515.877319 356.413055,517.277649 360.691284,517.418762 
	C365.163300,517.566284 369.648010,517.658264 374.115021,517.476074 
	C376.064606,517.396545 377.983887,516.573853 379.922394,516.087219 
	C378.352386,510.428131 374.866974,508.036163 369.282166,507.073517 
z"/>
<path fill="#304560" opacity="1.000000" stroke="none" 
	d="
M835.706726,497.595245 
	C853.501099,492.435089 868.707886,500.329559 872.049133,516.118530 
	C874.973694,529.938354 867.012512,543.295837 853.478333,547.276917 
	C839.794739,551.301941 825.561707,544.345215 820.957153,531.381531 
	C816.084412,517.662781 822.075867,503.663208 835.706726,497.595245 
M834.850403,513.497131 
	C830.797058,520.242798 831.179565,526.778137 835.920166,531.777161 
	C840.103455,536.188293 847.125854,537.407349 852.401917,534.542358 
	C857.593323,531.723328 860.019653,527.157410 859.752319,521.394836 
	C859.483765,515.604980 856.531860,511.276062 851.101685,509.093597 
	C845.047180,506.660248 839.720215,508.126526 834.850403,513.497131 
z"/>
<path fill="#314762" opacity="1.000000" stroke="none" 
	d="
M674.000122,497.385040 
	C674.159424,497.290680 674.318726,497.196320 675.024414,497.317993 
	C679.370117,497.052704 683.169434,496.571320 686.968689,496.089905 
	C687.832642,496.171906 688.696594,496.253906 689.872986,496.710999 
	C690.458862,497.043030 690.732361,496.999969 691.005798,496.956909 
	C700.963928,499.850006 707.976440,509.446899 707.653809,519.725830 
	C707.525452,523.813599 706.038208,526.151794 701.340820,526.040222 
	C691.393555,525.804016 681.436707,525.968201 671.447754,525.968201 
	C672.952759,536.307983 684.118713,540.325867 693.346252,533.864563 
	C696.092346,531.941650 698.449890,531.167480 701.547058,532.693054 
	C705.626099,534.702332 706.305237,536.918945 703.422485,540.479248 
	C699.662598,545.122803 694.504700,547.608459 688.733948,547.928467 
	C684.014160,548.190247 679.227539,547.244324 674.030090,546.302063 
	C672.692017,545.525879 671.794434,545.281433 670.896790,545.036987 
	C670.385742,544.826599 669.874634,544.616211 669.134155,543.831238 
	C667.828796,542.611145 666.752930,541.965698 665.677002,541.320190 
	C665.677002,541.320190 665.771484,541.237732 665.694336,541.014648 
	C665.283447,540.623169 664.949707,540.454773 664.615906,540.286316 
	C664.615906,540.286316 664.801514,540.260132 664.790527,539.932312 
	C664.575928,538.988403 664.474243,538.312561 664.153687,537.764893 
	C655.219116,522.501770 657.774780,510.561707 672.129883,500.184875 
	C672.982422,499.568604 673.387085,498.332642 674.000122,497.385040 
M685.878418,507.242828 
	C677.813782,506.731232 673.538452,509.433105 672.175476,515.965210 
	C679.652649,515.965210 687.107727,515.965210 694.797729,515.965210 
	C693.561218,511.186951 690.629944,508.804199 685.878418,507.242828 
z"/>
<path fill="#314762" opacity="1.000000" stroke="none" 
	d="
M410.162964,504.713348 
	C412.993561,513.010254 415.719696,520.927734 418.445831,528.845276 
	C418.821869,528.843445 419.197906,528.841675 419.573914,528.839844 
	C422.253326,520.733643 424.944824,512.631470 427.608612,504.520172 
	C430.102081,496.927490 432.653320,495.294891 440.280975,497.126099 
	C441.342010,497.380798 442.922668,499.920471 442.604370,500.806885 
	C437.437347,515.196350 432.085968,529.522522 426.493164,543.751648 
	C425.958435,545.112122 423.602509,546.436768 421.985168,546.581238 
	C411.621155,547.507446 411.570221,547.412659 407.959442,537.691833 
	C403.789520,526.465759 399.665070,515.222412 395.592285,503.960663 
	C393.270447,497.540619 393.716339,497.526825 400.209869,496.844788 
	C406.374664,496.197296 409.156830,498.704346 410.162964,504.713348 
z"/>
<path fill="#53B89A" opacity="1.000000" stroke="none" 
	d="
M220.813324,544.909546 
	C229.049316,536.640991 234.789948,527.047974 238.333664,515.784851 
	C239.658661,511.573578 243.836304,508.034210 247.272659,504.779022 
	C250.442429,501.776428 254.361603,499.564972 258.273529,496.774841 
	C259.775299,523.616821 248.673660,550.459290 225.389114,564.668457 
	C227.916489,558.915588 230.391525,553.888489 225.316620,547.902527 
	C223.819687,546.136841 223.009766,544.949097 220.813324,544.909546 
z"/>
<path fill="#314762" opacity="1.000000" stroke="none" 
	d="
M216.437653,523.441772 
	C205.849258,534.095459 204.649902,534.084595 194.358810,523.515991 
	C191.572311,520.654297 188.682449,517.886292 186.012543,514.919983 
	C182.962097,511.530884 183.061081,507.082764 186.024948,504.188965 
	C189.246017,501.044098 191.997925,501.200623 195.971893,504.812622 
	C197.449493,506.155640 198.845688,507.587830 200.298126,508.959045 
	C201.739243,510.319672 203.204453,511.654816 205.003113,513.319519 
	C209.258972,509.251129 213.349548,505.180359 217.616791,501.304108 
	C222.424744,496.936707 228.520828,497.787750 232.579865,502.998016 
	C234.875290,505.944397 232.740173,507.576935 231.017395,509.284210 
	C226.289764,513.969421 221.468460,518.560181 216.437653,523.441772 
z"/>
<path fill="#608DEC" opacity="1.000000" stroke="none" 
	d="
M173.019272,480.586670 
	C174.795731,479.507996 176.833817,478.114899 178.984634,476.644714 
	C171.655014,472.202606 174.826096,466.457733 178.621155,460.440338 
	C187.446579,458.227234 194.936813,454.015015 201.251038,448.001801 
	C204.504639,444.903320 206.913483,444.530273 209.758835,448.723511 
	C210.079910,452.003021 210.350266,454.639923 210.747055,458.510315 
	C209.635910,460.125397 207.637207,463.030640 205.878525,465.586975 
	C207.013229,467.397400 207.932404,468.863922 208.851562,470.330444 
	C207.182739,470.067932 204.924988,468.973206 203.936691,469.672485 
	C194.707657,476.202881 184.219498,478.833893 173.019272,480.586670 
z"/>
<path fill="#314762" opacity="1.000000" stroke="none" 
	d="
M456.871887,546.724976 
	C449.048981,546.632751 449.082703,546.632874 449.103088,539.230530 
	C449.136047,527.259277 449.075806,515.287720 449.142853,503.316772 
	C449.175720,497.443359 450.095520,496.692627 456.375336,496.756836 
	C462.164154,496.816040 462.857391,497.451599 462.868439,503.483704 
	C462.891510,516.120178 462.677521,528.759094 462.875000,541.392151 
	C462.941559,545.652466 461.311829,547.179443 456.871887,546.724976 
z"/>
<path fill="#4FABC2" opacity="1.000000" stroke="none" 
	d="
M209.035095,470.593323 
	C207.932404,468.863922 207.013229,467.397400 205.878525,465.586975 
	C207.637207,463.030640 209.635910,460.125397 210.747055,458.510315 
	C210.350266,454.639923 210.079910,452.003021 209.954712,448.983643 
	C212.919632,450.336578 215.773758,452.018921 218.552231,453.818085 
	C224.762955,457.839752 231.621719,459.401123 238.927780,459.359589 
	C240.685852,459.349579 242.444031,459.358093 245.536636,459.358093 
	C240.683289,463.914154 236.719238,467.541443 232.860535,471.277527 
	C225.108505,478.783234 224.172379,478.958069 214.354706,473.876129 
	C212.593506,472.964478 210.928207,471.867554 209.035095,470.593323 
z"/>
<path fill="#608DEC" opacity="1.000000" stroke="none" 
	d="
M183.008728,543.988464 
	C184.250977,543.783142 185.493225,543.577820 187.039948,543.122314 
	C193.014526,546.870789 198.684586,550.869507 204.902985,555.225342 
	C206.824341,557.687866 208.197388,559.793335 209.570435,561.898743 
	C206.184586,563.734619 209.368713,565.632324 209.691360,567.324341 
	C207.356110,569.984375 205.183517,572.459167 203.010910,574.933899 
	C199.807007,573.412598 196.603104,571.891296 193.034424,569.942139 
	C192.458496,569.303406 192.207794,569.163208 191.917542,569.093628 
	C191.917542,569.093628 191.929596,569.126648 191.790192,568.822510 
	C190.730545,568.077698 189.810303,567.637024 188.890045,567.196289 
	C188.890045,567.196289 188.914948,567.146423 188.775955,566.831970 
	C187.718185,566.060791 186.799408,565.604004 185.880646,565.147278 
	C185.880646,565.147278 185.834717,565.155151 185.810562,565.159790 
	C185.139206,563.008301 184.753555,560.726807 183.791946,558.721497 
	C181.591812,554.133545 180.286804,549.606140 182.982727,544.389771 
	C183.000000,544.000000 183.008728,543.988464 183.008728,543.988464 
z"/>
<path fill="#4FABC2" opacity="1.000000" stroke="none" 
	d="
M203.337250,575.126221 
	C205.183517,572.459167 207.356110,569.984375 209.691360,567.324341 
	C209.368713,565.632324 206.184586,563.734619 209.570435,561.898743 
	C208.197388,559.793335 206.824341,557.687866 205.235352,555.326294 
	C210.080536,551.768799 215.141678,548.467407 220.508057,545.037781 
	C223.009766,544.949097 223.819687,546.136841 225.316620,547.902527 
	C230.391525,553.888489 227.916489,558.915588 225.037247,564.690430 
	C219.491638,568.502563 214.006226,572.050232 208.327179,575.254761 
	C207.138962,575.925232 205.236771,575.330261 203.337250,575.126221 
z"/>
<path fill="#304560" opacity="1.000000" stroke="none" 
	d="
M447.340088,481.973572 
	C447.785706,476.855499 450.355377,473.852203 455.052155,473.321716 
	C458.964844,472.879791 462.151947,474.579987 463.958130,478.268524 
	C465.775787,481.980530 465.255432,485.708954 462.210815,488.196411 
	C460.282410,489.771912 457.114960,490.869537 454.696014,490.578613 
	C450.348022,490.055695 448.036865,486.681427 447.340088,481.973572 
z"/>
<path fill="#304560" opacity="1.000000" stroke="none" 
	d="
M243.872437,495.246948 
	C240.545013,495.252655 237.216843,494.912476 233.684982,494.551514 
	C233.098557,492.569000 232.141693,489.334106 231.107513,485.837921 
	C234.075958,485.699127 238.432404,485.713440 238.132828,479.221924 
	C240.051727,483.535614 241.616531,487.192535 247.469589,485.532410 
	C245.307602,488.958405 241.052841,490.804047 243.872437,495.246948 
z"/>
<path fill="#53B89A" opacity="1.000000" stroke="none" 
	d="
M272.184448,470.221252 
	C268.884338,470.205444 265.772095,469.900452 262.359192,469.566010 
	C261.943573,467.881622 261.194031,464.843994 260.414734,461.685730 
	C262.227356,460.230957 264.717865,458.232147 267.081085,456.335510 
	C269.146118,458.081116 271.597137,460.153015 273.800079,462.015198 
	C273.384399,464.320099 272.878357,467.126099 272.184448,470.221252 
z"/>
<path fill="#304560" opacity="1.000000" stroke="none" 
	d="
M673.665894,497.441345 
	C673.387085,498.332642 672.982422,499.568604 672.129883,500.184875 
	C657.774780,510.561707 655.219116,522.501770 664.153687,537.764893 
	C664.474243,538.312561 664.575928,538.988403 664.709961,539.980103 
	C652.114563,527.292542 656.666626,504.845825 673.665894,497.441345 
z"/>
<path fill="#53B89A" opacity="1.000000" stroke="none" 
	d="
M257.326721,472.932617 
	C256.381073,475.563538 255.185516,477.977234 253.876541,480.619965 
	C252.169174,480.510040 249.767807,480.355438 247.956406,480.238831 
	C247.240829,477.933563 246.519669,475.610291 245.847458,473.444733 
	C247.475220,472.276855 249.502228,470.822510 250.769669,469.913116 
	C253.093475,470.945648 255.085114,471.830536 257.326721,472.932617 
z"/>
<path fill="#304560" opacity="1.000000" stroke="none" 
	d="
M650.469055,545.958740 
	C650.044678,524.773193 650.013184,503.376892 650.017700,481.980560 
	C650.017944,480.847504 650.322754,479.714508 650.779175,478.281006 
	C651.193665,483.786713 651.407532,489.592773 651.418152,495.399200 
	C651.445557,510.377808 651.399231,525.356628 651.335632,540.335205 
	C651.328003,542.140015 651.031860,543.943665 650.469055,545.958740 
z"/>
<path fill="#304560" opacity="1.000000" stroke="none" 
	d="
M686.612915,495.983185 
	C683.169434,496.571320 679.370117,497.052704 675.302002,497.309998 
	C678.774536,496.682770 682.515808,496.279602 686.612915,495.983185 
z"/>
<path fill="#608DEC" opacity="1.000000" stroke="none" 
	d="
M186.142029,541.449402 
	C185.235291,541.820312 184.262848,541.886169 182.954407,541.974854 
	C182.954407,540.558533 182.954407,539.315430 182.927017,537.735107 
	C183.958527,538.646667 185.017426,539.895508 186.142029,541.449402 
z"/>
<path fill="#304560" opacity="1.000000" stroke="none" 
	d="
M648.579468,475.804260 
	C646.191711,476.146637 643.375000,476.332367 640.274170,476.240784 
	C642.710144,475.858185 645.430359,475.752899 648.579468,475.804260 
z"/>
<path fill="#304560" opacity="1.000000" stroke="none" 
	d="
M665.827637,541.591187 
	C666.752930,541.965698 667.828796,542.611145 668.959167,543.606567 
	C668.001831,543.258362 666.990051,542.560303 665.827637,541.591187 
z"/>
<path fill="#7471F5" opacity="1.000000" stroke="none" 
	d="
M186.014282,565.430298 
	C186.799408,565.604004 187.718185,566.060791 188.748550,566.827026 
	C187.956070,566.662170 187.052002,566.187744 186.014282,565.430298 
z"/>
<path fill="#7471F5" opacity="1.000000" stroke="none" 
	d="
M189.020966,567.477112 
	C189.810303,567.637024 190.730545,568.077698 191.772614,568.823914 
	C190.980240,568.672241 190.066055,568.215088 189.020966,567.477112 
z"/>
<path fill="#304560" opacity="1.000000" stroke="none" 
	d="
M671.133789,545.278198 
	C671.794434,545.281433 672.692017,545.525879 673.742188,546.096375 
	C673.053406,546.121460 672.212097,545.820435 671.133789,545.278198 
z"/>
<path fill="#304560" opacity="1.000000" stroke="none" 
	d="
M664.722778,540.541382 
	C664.949707,540.454773 665.283447,540.623169 665.687988,541.077026 
	C665.448975,541.173828 665.139282,540.985107 664.722778,540.541382 
z"/>
<path fill="#608DEC" opacity="1.000000" stroke="none" 
	d="
M187.096954,542.625305 
	C186.851776,542.719666 186.569183,542.532043 186.197144,542.099487 
	C186.424973,542.017578 186.742249,542.180481 187.096954,542.625305 
z"/>
<path fill="#304560" opacity="1.000000" stroke="none" 
	d="
M690.794189,496.831421 
	C690.732361,496.999969 690.458862,497.043030 690.138062,496.905212 
	C690.090759,496.724335 690.582520,496.705902 690.794189,496.831421 
z"/>
<path fill="#7471F5" opacity="1.000000" stroke="none" 
	d="
M192.021027,569.293091 
	C192.207794,569.163208 192.458496,569.303406 192.794785,569.689453 
	C192.608063,569.840515 192.342911,569.716492 192.021027,569.293091 
z"/>
<path fill="#DDE8E7" opacity="1.000000" stroke="none" 
	d="
M311.775635,508.572754 
	C308.353607,508.576294 305.388763,508.576294 301.836456,508.576294 
	C301.836456,504.979553 301.836426,501.875000 301.836426,498.770477 
	C301.836426,495.783417 301.836456,492.796356 301.836456,489.380798 
	C307.591461,489.380798 313.210693,488.871368 318.687134,489.536957 
	C323.327454,490.100922 325.619507,493.791870 325.820984,498.461304 
	C326.018341,503.034607 323.143188,506.948059 318.659821,508.001556 
	C316.587433,508.488525 314.379364,508.397919 311.775635,508.572754 
z"/>
<path fill="#DDE8E7" opacity="1.000000" stroke="none" 
	d="
M637.697815,527.107178 
	C633.829590,534.601929 628.098083,537.475952 621.327942,535.631714 
	C615.059448,533.924072 610.729675,527.861084 611.150818,521.380493 
	C611.569336,514.939270 616.629761,509.424591 623.005432,508.461761 
	C632.721313,506.994568 639.493713,515.330017 637.697815,527.107178 
z"/>
<path fill="#608DEC" opacity="1.000000" stroke="none" 
	d="
M182.994263,544.004395 
	C182.883560,543.879272 182.778595,543.749878 182.673645,543.620422 
	C182.750122,543.662842 182.826599,543.705261 182.955902,543.868103 
	C183.008728,543.988464 183.000000,544.000000 182.994263,544.004395 
z"/>
<path fill="#DDE8E7" opacity="1.000000" stroke="none" 
	d="
M504.719604,511.506805 
	C505.480255,513.009338 506.011871,514.199829 506.721771,515.789490 
	C498.771027,518.529968 491.174988,517.559021 483.087372,517.091797 
	C487.131226,506.136169 496.457153,504.088684 504.719604,511.506805 
z"/>
<path fill="#DDE8E7" opacity="1.000000" stroke="none" 
	d="
M369.689026,507.114685 
	C374.866974,508.036163 378.352386,510.428131 379.922394,516.087219 
	C377.983887,516.573853 376.064606,517.396545 374.115021,517.476074 
	C369.648010,517.658264 365.163300,517.566284 360.691284,517.418762 
	C356.413055,517.277649 355.757935,515.877319 358.160919,512.265259 
	C360.803101,508.293610 364.640289,506.802094 369.689026,507.114685 
z"/>
<path fill="#DDE8E7" opacity="1.000000" stroke="none" 
	d="
M835.066467,513.189026 
	C839.720215,508.126526 845.047180,506.660248 851.101685,509.093597 
	C856.531860,511.276062 859.483765,515.604980 859.752319,521.394836 
	C860.019653,527.157410 857.593323,531.723328 852.401917,534.542358 
	C847.125854,537.407349 840.103455,536.188293 835.920166,531.777161 
	C831.179565,526.778137 830.797058,520.242798 835.066467,513.189026 
z"/>
<path fill="#DDE8E7" opacity="1.000000" stroke="none" 
	d="
M686.264526,507.347839 
	C690.629944,508.804199 693.561218,511.186951 694.797729,515.965210 
	C687.107727,515.965210 679.652649,515.965210 672.175476,515.965210 
	C673.538452,509.433105 677.813782,506.731232 686.264526,507.347839 
z"/>
</svg>